<?xml version="1.0" encoding="utf-8"?>
<!-- Generator: Adobe Illustrator 24.0.0, SVG Export Plug-In . SVG Version: 6.00 Build 0)  -->
<svg version="1.1" id="Слой_1" xmlns="http://www.w3.org/2000/svg" xmlns:xlink="http://www.w3.org/1999/xlink" x="0px" y="0px"
	 viewBox="0 0 700 700" style="enable-background:new 0 0 700 700;" xml:space="preserve">
<style type="text/css">
	.st0{fill:#FF0000;}
	.st1{font-family:'MyriadPro-Regular';}
	.st2{font-size:12px;}
	.st3{font-family:'Arial-BoldItalicMT';}
	.st4{font-size:18px;}
	.st5{font-size:24px;}
</style>
<g>
	<line class="st0" x1="542.5" y1="542.5" x2="562.5" y2="349.5"/>
	<g>
		<path class="st0" d="M547.5,542.5c2.26-21.76,4.51-43.52,6.76-65.28c3.59-34.66,7.18-69.31,10.77-103.97
			c0.82-7.92,1.64-15.83,2.46-23.75c0.66-6.39-9.34-6.35-10,0c-2.26,21.76-4.51,43.52-6.76,65.28
			c-3.59,34.66-7.18,69.31-10.77,103.97c-0.82,7.92-1.64,15.83-2.46,23.75C536.84,548.89,546.84,548.85,547.5,542.5L547.5,542.5z"/>
	</g>
</g>
<g>
	<line class="st0" x1="562.5" y1="349.5" x2="623.5" y2="74.5"/>
	<g>
		<path class="st0" d="M567.32,350.83c6.87-30.96,13.74-61.92,20.6-92.88c10.95-49.36,21.9-98.72,32.85-148.08
			c2.52-11.34,5.03-22.69,7.55-34.03c1.39-6.27-8.25-8.95-9.64-2.66c-6.87,30.96-13.74,61.92-20.6,92.88
			c-10.95,49.36-21.9,98.72-32.85,148.08c-2.52,11.34-5.03,22.69-7.55,34.03C556.29,354.44,565.93,357.12,567.32,350.83
			L567.32,350.83z"/>
	</g>
</g>
<g>
	<line class="st0" x1="349.5" y1="149.5" x2="623.5" y2="75.5"/>
	<g>
		<path class="st0" d="M350.83,154.32c30.8-8.32,61.59-16.63,92.39-24.95c49.27-13.31,98.54-26.61,147.8-39.92
			c11.27-3.04,22.54-6.09,33.8-9.13c6.21-1.68,3.57-11.33-2.66-9.64c-30.8,8.32-61.59,16.63-92.39,24.95
			c-49.27,13.31-98.54,26.61-147.8,39.92c-11.27,3.04-22.54,6.09-33.8,9.13C341.96,146.35,344.6,156,350.83,154.32L350.83,154.32z"
			/>
	</g>
</g>
<g>
	<line class="st0" x1="100.5" y1="349.5" x2="276.5" y2="276.5"/>
	<g>
		<path class="st0" d="M101.83,354.32c19.8-8.21,39.6-16.42,59.39-24.63c31.58-13.1,63.17-26.2,94.75-39.3
			c7.29-3.02,14.57-6.04,21.86-9.07c5.86-2.43,3.29-12.11-2.66-9.64c-19.8,8.21-39.6,16.42-59.39,24.63
			c-31.58,13.1-63.17,26.2-94.75,39.3c-7.29,3.02-14.57,6.04-21.86,9.07C93.31,347.11,95.88,356.79,101.83,354.32L101.83,354.32z"/>
	</g>
</g>
<g>
	<line class="st0" x1="276.5" y1="276.5" x2="349.5" y2="149.5"/>
	<g>
		<path class="st0" d="M280.82,279.02c21.31-37.07,42.61-74.14,63.92-111.2c3.03-5.27,6.05-10.53,9.08-15.8
			c3.21-5.59-5.42-10.63-8.63-5.05c-21.31,37.07-42.61,74.14-63.92,111.2c-3.03,5.27-6.05,10.53-9.08,15.8
			C268.97,279.57,277.61,284.61,280.82,279.02L280.82,279.02z"/>
	</g>
</g>
<g>
	<line class="st0" x1="100.5" y1="349.5" x2="207.5" y2="491.5"/>
	<g>
		<path class="st0" d="M96.18,352.02c12.02,15.95,24.04,31.9,36.06,47.85c19.19,25.47,38.39,50.94,57.58,76.41
			c4.46,5.91,8.91,11.82,13.37,17.74c3.83,5.08,12.51,0.1,8.63-5.05c-12.02-15.95-24.04-31.9-36.06-47.85
			c-19.19-25.47-38.39-50.94-57.58-76.41c-4.46-5.91-8.91-11.82-13.37-17.74C100.99,341.9,92.31,346.88,96.18,352.02L96.18,352.02z"
			/>
	</g>
</g>
<g>
	<line class="st0" x1="207.5" y1="491.5" x2="349.5" y2="549.5"/>
	<g>
		<path class="st0" d="M206.17,496.32c41.43,16.92,82.86,33.84,124.29,50.77c5.9,2.41,11.81,4.82,17.71,7.23
			c5.95,2.43,8.55-7.24,2.66-9.64c-41.43-16.92-82.86-33.84-124.29-50.77c-5.9-2.41-11.81-4.82-17.71-7.23
			C202.88,484.25,200.28,493.92,206.17,496.32L206.17,496.32z"/>
	</g>
</g>
<g>
	<line class="st0" x1="349.5" y1="549.5" x2="542.5" y2="542.5"/>
	<g>
		<path class="st0" d="M349.5,554.5c21.69-0.79,43.38-1.57,65.07-2.36c34.63-1.26,69.25-2.51,103.88-3.77
			c8.02-0.29,16.03-0.58,24.05-0.87c6.42-0.23,6.45-10.23,0-10c-21.69,0.79-43.38,1.57-65.07,2.36
			c-34.63,1.26-69.25,2.51-103.88,3.77c-8.02,0.29-16.03,0.58-24.05,0.87C343.08,544.73,343.05,554.73,349.5,554.5L349.5,554.5z"/>
	</g>
</g>
<g>
	<line class="st0" x1="350" y1="150" x2="350" y2="550"/>
	<g>
		<path class="st0" d="M345,150c0,13.23,0,26.47,0,39.7c0,31.79,0,63.58,0,95.37c0,38.64,0,77.29,0,115.93c0,33.26,0,66.52,0,99.79
			c0,16.12-0.71,32.42,0,48.53c0.01,0.23,0,0.46,0,0.69c0,6.43,10,6.45,10,0c0-13.23,0-26.47,0-39.7c0-31.79,0-63.58,0-95.37
			c0-38.64,0-77.29,0-115.93c0-33.26,0-66.52,0-99.79c0-16.12,0.71-32.42,0-48.53c-0.01-0.23,0-0.46,0-0.69
			C355,143.57,345,143.55,345,150L345,150z"/>
	</g>
</g>
<g>
	<circle cx="350" cy="550" r="20"/>
</g>
<g>
	<circle cx="350" cy="150" r="20"/>
</g>
<text transform="matrix(0 1 -1 0 361.478 233.6104)" class="st1 st2">50000</text>
<text transform="matrix(0 1 -1 0 361.478 453.6105)" class="st1 st2">50000</text>
<g>
	<line class="st0" x1="562.5" y1="349.5" x2="100.5" y2="349.5"/>
	<g>
		<path class="st0" d="M562.5,344.5c-15.36,0-30.72,0-46.08,0c-36.71,0-73.43,0-110.14,0c-44.57,0-89.13,0-133.7,0
			c-38.39,0-76.77,0-115.16,0c-18.65,0-37.47-0.74-56.11,0c-0.27,0.01-0.55,0-0.82,0c-6.43,0-6.45,10,0,10c15.36,0,30.72,0,46.08,0
			c36.71,0,73.43,0,110.14,0c44.57,0,89.13,0,133.7,0c38.39,0,76.77,0,115.16,0c18.65,0,37.47,0.74,56.11,0c0.27-0.01,0.55,0,0.82,0
			C568.93,354.5,568.95,344.5,562.5,344.5L562.5,344.5z"/>
	</g>
</g>
<g>
	<circle cx="101" cy="350" r="20"/>
</g>
<g>
	<circle cx="563" cy="350" r="20"/>
</g>
<text transform="matrix(1 0 0 1 445.6289 336.478)" class="st1 st2">49000</text>
<g>
	<line class="st0" x1="273.5" y1="273.5" x2="542.5" y2="542.5"/>
	<g>
		<path class="st0" d="M269.96,277.04c8.92,8.92,17.84,17.84,26.77,26.77c21.42,21.42,42.85,42.85,64.27,64.27
			c25.92,25.92,51.83,51.83,77.75,77.75c22.31,22.31,44.63,44.63,66.94,66.94c10.84,10.84,21.23,22.72,32.8,32.8
			c0.17,0.15,0.32,0.32,0.48,0.48c4.56,4.56,11.63-2.51,7.07-7.07c-8.92-8.92-17.84-17.84-26.77-26.77
			c-21.42-21.42-42.85-42.85-64.27-64.27c-25.92-25.92-51.83-51.83-77.75-77.75c-22.31-22.31-44.63-44.63-66.94-66.94
			c-10.84-10.84-21.23-22.72-32.8-32.8c-0.17-0.15-0.32-0.32-0.48-0.48C272.48,265.41,265.41,272.48,269.96,277.04L269.96,277.04z"
			/>
	</g>
</g>
<g>
	<circle cx="543" cy="543" r="20"/>
</g>
<g>
	<circle cx="277" cy="277" r="20"/>
</g>
<text transform="matrix(0.7071 0.7071 -0.7071 0.7071 305.0345 286.5624)" class="st1 st2">15000</text>
<text transform="matrix(0.7071 0.7071 -0.7071 0.7071 430.6189 415.1469)" class="st1 st2">59000</text>
<g>
	<line class="st0" x1="207.82" y1="491.42" x2="625.5" y2="73.5"/>
	<g>
		<path class="st0" d="M211.35,494.96c13.9-13.9,27.79-27.81,41.69-41.71c33.24-33.26,66.49-66.52,99.73-99.79
			c40.31-40.33,80.61-80.66,120.92-120.99c34.71-34.73,69.43-69.47,104.14-104.2c16.8-16.81,34.27-33.17,50.51-50.54
			c0.22-0.24,0.46-0.46,0.69-0.69c4.56-4.56-2.51-11.63-7.07-7.07c-13.9,13.9-27.79,27.81-41.69,41.71
			c-33.24,33.26-66.49,66.52-99.73,99.79c-40.31,40.33-80.61,80.66-120.92,120.99c-34.71,34.73-69.43,69.47-104.14,104.2
			c-16.8,16.81-34.27,33.17-50.51,50.54c-0.22,0.24-0.46,0.46-0.69,0.69C199.73,492.44,206.8,499.52,211.35,494.96L211.35,494.96z"
			/>
	</g>
</g>
<g>
	<circle cx="624" cy="75" r="20"/>
</g>
<g>
	<circle cx="207.82" cy="491.42" r="20"/>
</g>
<text transform="matrix(0.7071 -0.7071 0.7071 0.7071 246.8012 436.2043)" class="st1 st2">45000</text>
<text transform="matrix(0.7071 -0.7071 0.7071 0.7071 462.3857 216.6194)" class="st1 st2">78000</text>
<g>
	<circle cx="349.62" cy="349.65" r="20"/>
</g>
<text transform="matrix(1 0 0 1 214.8407 336.1728)" class="st1 st2">45000</text>
<text transform="matrix(1 0 0 1 377.9922 339.3308)" class="st3 st4">City1</text>
<text transform="matrix(1 0 0 1 322.5282 123.3307)" class="st3 st4">City2</text>
<text transform="matrix(1 0 0 1 603.5286 47.9818)" class="st3 st4">City3</text>
<text transform="matrix(1 0 0 1 582.5286 338.9814)" class="st3 st4">City4</text>
<text transform="matrix(1 0 0 1 522.5284 583.9816)" class="st3 st4">City5</text>
<text transform="matrix(1 0 0 1 329.5284 589.3307)" class="st3 st4">City6</text>
<text transform="matrix(1 0 0 1 187.5284 529.9816)" class="st3 st4">City7</text>
<text transform="matrix(1 0 0 1 35.5284 338.9816)" class="st3 st4">City8</text>
<text transform="matrix(1 0 0 1 215.9757 259.3309)" class="st3 st4">City9</text>
<text transform="matrix(0.9659 -0.2588 0.2588 0.9659 456.8322 112.4191)" class="st1 st2">59000</text>
<text transform="matrix(0.509 -0.8608 0.8608 0.509 296.8402 220.1736)" class="st1 st2">35000</text>
<text transform="matrix(0.2419 -0.9703 0.9703 0.2419 578.8431 240.1732)" class="st1 st2">64000</text>
<text transform="matrix(0.1219 -0.9925 0.9925 0.1219 539.0139 461.3069)" class="st1 st2">49000</text>
<text transform="matrix(1 0 0 1 118.1748 143.8569)" class="st3 st5">Map</text>
<text transform="matrix(0.9994 -0.0349 0.0349 0.9994 423.7422 536.0565)" class="st1 st2">45000</text>
<text transform="matrix(0.9336 0.3584 -0.3584 0.9336 267.5371 504.0983)" class="st1 st2">40000</text>
<text transform="matrix(0.6157 0.788 -0.788 0.6157 154.75 402.0413)" class="st1 st2">42000</text>
<text transform="matrix(0.9205 -0.3907 0.3907 0.9205 174.2094 307.2554)" class="st1 st2">37000</text>
</svg>
